<?xml version="1.0" standalone="no"?>
<!DOCTYPE svg PUBLIC "-//W3C//DTD SVG 20010904//EN"
 "http://www.w3.org/TR/2001/REC-SVG-20010904/DTD/svg10.dtd">
<svg version="1.0" xmlns="http://www.w3.org/2000/svg"
 width="70.000000pt" height="70.000000pt" viewBox="0 0 70.000000 70.000000"
 preserveAspectRatio="xMidYMid meet">
<metadata>
Created by potrace 1.11, written by Peter Selinger 2001-2013
</metadata>
<g transform="translate(0.000000,70.000000) scale(0.100000,-0.100000)"
fill="#000000" stroke="none">
<path d="M174 538 c-4 -6 -3 -13 2 -15 7 -2 7 -20 0 -52 -8 -42 -14 -50 -37
-55 -35 -7 -42 -29 -18 -60 18 -23 18 -28 5 -48 -14 -23 -19 -51 -17 -96 1
-12 16 -38 34 -58 40 -44 96 -55 149 -30 40 19 78 79 72 116 -3 16 -1 21 5 15
5 -6 11 -26 13 -45 3 -32 6 -35 31 -32 15 2 27 -1 27 -8 0 -21 49 -60 75 -60
14 0 37 11 50 25 23 22 25 32 25 115 0 115 -11 130 -100 130 l-60 0 0 63 c0
100 -9 107 -140 107 -73 0 -111 -4 -116 -12z m200 -24 c12 -5 16 -21 16 -71
l0 -65 -27 5 c-32 6 -100 30 -108 39 -3 3 -2 24 3 46 9 39 9 41 -17 45 -14 2
6 5 46 6 39 0 78 -2 87 -5z m-104 -142 c0 -11 -106 -10 -116 1 -4 4 20 7 54 7
34 0 62 -4 62 -8z m100 -88 c-1 -17 -2 -16 -13 3 -7 12 -24 31 -40 43 -15 12
-25 26 -21 31 8 14 74 -55 74 -77z m111 49 c0 -11 3 -13 6 -5 2 6 9 12 15 12
6 0 8 -7 4 -15 -3 -10 3 -17 19 -21 18 -4 25 -13 25 -29 0 -20 -4 -23 -30 -20
-21 3 -38 -3 -59 -20 -46 -39 -59 -33 -58 26 1 27 -3 53 -8 57 -27 19 -13 32
35 32 41 0 50 -3 51 -17z m59 -8 c0 -8 -4 -15 -10 -15 -5 0 -10 7 -10 15 0 8
5 15 10 15 6 0 10 -7 10 -15z m-236 -21 c48 -48 31 -127 -33 -154 -82 -34
-161 54 -119 133 18 34 40 46 84 47 32 0 48 -6 68 -26z m244 -120 c3 -34 -16
-49 -48 -39 -44 14 -28 78 18 73 22 -2 28 -9 30 -34z"/>
</g>
</svg>
